<?xml version="1.0" encoding="utf-8"?>
<!-- Generator: Adobe Illustrator 19.0.0, SVG Export Plug-In . SVG Version: 6.00 Build 0)  -->
<svg version="1.1" id="Layer_1" xmlns="http://www.w3.org/2000/svg" xmlns:xlink="http://www.w3.org/1999/xlink" x="0px" y="0px"
	 viewBox="0 0 494.5 111.4" style="enable-background:new 0 0 494.5 111.4;" xml:space="preserve">
<g>
	<path d="M207.9,56.6c-1.4,5.9-2.7,8.5-12.8,8.5h-13.3c-9.2,0-10.6-1.8-10.6-12.9V17.7c0-11.1,1.3-12.9,10.6-12.9V2.4h-30v2.3
		c9.2,0,10.6,1.8,10.6,12.9v36.1c0,11.1-1.3,13-10.6,13v2.3h58.2l0.9-14.8h-2.3L207.9,56.6z"/>
	<path d="M258.5,66.8c-9.2,0-10.6-1.9-10.6-13V17.7c0-11.1,1.3-12.9,10.6-12.9V2.4h-30v2.3c9.2,0,10.6,1.8,10.6,12.9v36.1
		c0,11.1-1.3,13-10.6,13v2.3h30V66.8z"/>
	<path d="M455.4,65.8c3.6,0.8,8.9,5.2,17.3,5.2c11.5,0,21.1-7.9,21.1-20c0-6.1-3-12.6-11.6-16.9l-10.7-5.4c-9.6-5-13.5-8-13.5-13.8
		c0-5.6,4.6-9.9,10.8-9.9c12.9,0,16.2,10.6,17,19.5h2.3V0h-2.2c-0.6,2.3-1.9,4-3.2,5.1c-3.3-2.4-7-4.6-13.6-4.6
		c-10.8,0-18.5,7.3-18.5,16.6c0,8.5,5.9,15,12.3,18.3l10.7,5.4c7.7,4,12.8,8.3,12.8,13.5c0,7.1-6,12.2-13.9,12.2
		c-20.3,0-20.6-20-20.6-20H450v24.5h2.2C452.8,68.6,454.1,66.9,455.4,65.8z"/>
	<path d="M409.7,66.8v2.3h31.2v-2.3c-3,0-10.2-2.9-14.3-6.4l-34.5-29.9l19.5-16.7c7.8-6.7,11.8-9,20.3-9V2.4h-25.8v2.3
		c7,0,6.6,3-0.4,9l-22.8,19.5V17.7c0-11.1,1.3-12.9,10.6-12.9V2.4h-30v2.3c9.2,0,10.6,1.8,10.6,12.9v36.1c0,11.1-1.3,13-10.6,13v2.3
		h30v-2.3c-9.2,0-10.6-1.9-10.6-13V38.4l2.9-2.3l28.1,24.4C418.3,64.2,417,66.8,409.7,66.8z"/>
	<path d="M349.6,2.4h-25.4v2.3c9.2,0,10.6,1.8,10.6,12.9v37.7L292.1,2.4h-15.7v2.3c9.2,0,10.6,1.8,10.6,12.9v36.1
		c0,11.1-1.3,13-10.6,13v2.3h25.4v-2.3c-9.2,0-10.7-1.9-10.7-13V15.1l45.3,55.9h2.6V17.7c0-11.1,1.4-12.9,10.7-12.9V2.4z"/>
	<path d="M458.9,106.2l-9.3-21.3h-0.5l-9.2,21.3c-1.3,2.9-1.5,3.6-5,3.6v0.9h9.8v-0.9c-3.5,0-4.3-0.9-3.3-3.2l2-4.6h10.1l2,4.6
		c1,2.3,0.2,3.2-3.3,3.2v0.9h11.6v-0.9C460.4,109.8,460.2,109.1,458.9,106.2z M444.1,100.5l4.4-10.1l4.4,10.1H444.1z"/>
	<path d="M415.2,86.5c3.5,0,4,0.7,4,4.9v13.6c0,4.2-0.5,4.9-4,4.9v0.9h11.3v-0.9c-3.5,0-4-0.7-4-4.9V91.3c0-4.2,0.5-4.9,4-4.9v-0.9
		h-11.3V86.5z"/>
	<path d="M493.6,105.1l-0.2,0.8c-0.5,2.2-1,3.2-4.8,3.2h-5c-3.5,0-4-0.7-4-4.9v-13c0-4.2,0.5-4.9,4-4.9v-0.9h-11.3v0.9
		c3.5,0,4,0.7,4,4.9v13.6c0,4.2-0.5,4.9-4,4.9v0.9h21.9l0.3-5.6H493.6z"/>
	<path d="M379.1,85.6l-0.4,5.7h0.9l0.2-0.8c0.6-2.2,1-3.2,4.9-3.2h5.5v17.7c0,4.2-0.5,4.9-4,4.9v0.9h11.3v-0.9c-3.5,0-4-0.7-4-4.9
		V87.2h5.5c3.9,0,4.3,1,4.9,3.2l0.2,0.8h0.9l-0.4-5.7H379.1z"/>
	<path d="M231.9,97.5l-4-2.1c-3.6-1.9-5.1-3-5.1-5.2c0-2.1,1.7-3.7,4.1-3.7c4.9,0,6.1,4,6.4,7.3h0.9v-9.2h-0.8
		c-0.2,0.9-0.7,1.5-1.2,1.9c-1.3-0.9-2.6-1.7-5.1-1.7c-4.1,0-6.9,2.8-6.9,6.2c0,3.2,2.2,5.7,4.6,6.9l4,2.1c2.9,1.5,4.8,3.1,4.8,5.1
		c0,2.7-2.3,4.6-5.2,4.6c-7.7,0-7.7-7.5-7.7-7.5h-0.8v9.2h0.8c0.2-0.9,0.7-1.5,1.2-2c1.3,0.3,3.3,2,6.5,2c4.3,0,8-3,8-7.5
		C236.3,101.6,235.1,99.2,231.9,97.5z"/>
	<path d="M282.3,85.6H271v0.9c3.5,0,4,0.7,4,4.9v13.6c0,4.2-0.5,4.9-4,4.9v0.9h11.3c9.8,0,14-5.7,14-12.6
		C296.3,91.3,292.1,85.6,282.3,85.6z M282.4,109.2h-0.2c-3.4,0-3.9-0.7-3.9-4.9V87.1c0,0,3.6,0,4.1,0c8.2,0,9.9,6.1,9.9,11
		C292.3,103.1,290.5,109.2,282.4,109.2z"/>
	<path d="M360,86.5c3.5,0,4,0.7,4,4.9v14.2l-16.1-19.9H342v0.9c3.5,0,4,0.7,4,4.9v13.6c0,4.2-0.5,4.9-4,4.9v0.9h9.5v-0.9
		c-3.5,0-4-0.7-4-4.9V90.4l17,21.1h1V91.3c0-4.2,0.5-4.9,4-4.9v-0.9H360V86.5z"/>
	<path d="M328.9,106c-0.5,2.2-1,3.2-4.9,3.2h-3.6c-3.5,0-4-0.7-4-4.9v-6.1h2.1c4.2,0,4.9,0.5,4.9,4h0.9v-9.6h-0.9c0,3.5-0.7,4-4.9,4
		h-2.1v-9.5h6.2c3.9,0,4.3,1,4.9,3.1l0.2,0.8h0.9l-0.4-5.5h-19.1v0.9c3.5,0,4,0.7,4,4.9v13.6c0,4.2-0.5,4.9-4,4.9v0.9h20.5l0.3-5.6
		h-0.9L328.9,106z"/>
	<path d="M248.1,86.5c3.5,0,4,0.7,4,4.9v13.6c0,4.2-0.5,4.9-4,4.9v0.9h11.3v-0.9c-3.5,0-4-0.7-4-4.9V91.3c0-4.2,0.5-4.9,4-4.9v-0.9
		h-11.3V86.5z"/>
	<path d="M168.5,104.5l-4.1-4.8c4.7-0.5,7.5-3.4,7.5-7c0-3.9-3.2-7.1-9-7.1h-11.1v0.9c3.5,0,4,0.7,4,4.9v13.6c0,4.2-0.5,4.9-4,4.9
		v0.9h11.3v-0.9c-3.5,0-4-0.7-4-4.9v-5.2h2l8.3,11h6.9v-0.9C173.8,109.5,171,107.5,168.5,104.5z M159.1,98.2V87.1h3.7
		c3.6,0,5.3,2.5,5.3,5.5c0,3.1-1.7,5.5-5.3,5.5H159.1z"/>
	<path d="M205.9,106c-0.5,2.2-1,3.2-4.9,3.2h-3.6c-3.5,0-4-0.7-4-4.9v-6.1h2.1c4.2,0,4.9,0.5,4.9,4h0.9v-9.6h-0.9c0,3.5-0.7,4-4.9,4
		h-2.1v-9.5h6.2c3.9,0,4.3,1,4.9,3.1l0.2,0.8h0.9l-0.4-5.5h-19.1v0.9c3.5,0,4,0.7,4,4.9v13.6c0,4.2-0.5,4.9-4,4.9v0.9h20.5l0.3-5.6
		h-0.9L205.9,106z"/>
	<rect x="124.1" y="2.9" width="1.8" height="108.3"/>
	<path d="M14.7,47.7v13.6v15.8v30.4h23.8V77.2h9.6h1.5h8.1v30.4h23.3V77.2V61.3V47.7L48.1,20.3L14.7,47.7z M33,96.3H22.8V79.3H33
		V96.3z M34.4,65.3H22.8V51.7h11.6V65.3z M74.9,96.3H64.7V79.3h10.2V96.3z M62.9,51.7h11.6v13.6H62.9V51.7z M53.9,65.3H42.3V51.7
		h11.6V65.3z"/>
	<polygon points="74.6,12.5 65,12.5 65,19.5 48.1,5.5 0,45.5 0,53.4 48.1,13.6 96.2,53.4 96.2,45.5 74.6,27.5 	"/>
</g>
</svg>
